<svg width="54" height="54" viewBox="0 0 54 54" fill="none" xmlns="http://www.w3.org/2000/svg">
<rect width="54" height="54" rx="15" fill="#00A7FF"/>
<path d="M36.2267 17.3888C35.96 16.5775 35.2133 16 34.3333 16H19.6667C18.7867 16 18.0533 16.5775 17.7733 17.3888L15 25.625V36.625C15 37.3813 15.6 38 16.3333 38H17.6667C18.4 38 19 37.3813 19 36.625V35.25H35V36.625C35 37.3813 35.6 38 36.3333 38H37.6667C38.4 38 39 37.3813 39 36.625V25.625L36.2267 17.3888ZM19.6667 31.125C18.56 31.125 17.6667 30.2037 17.6667 29.0625C17.6667 27.9213 18.56 27 19.6667 27C20.7733 27 21.6667 27.9213 21.6667 29.0625C21.6667 30.2037 20.7733 31.125 19.6667 31.125ZM34.3333 31.125C33.2267 31.125 32.3333 30.2037 32.3333 29.0625C32.3333 27.9213 33.2267 27 34.3333 27C35.44 27 36.3333 27.9213 36.3333 29.0625C36.3333 30.2037 35.44 31.125 34.3333 31.125ZM17.6667 24.25L19.6667 18.0625H34.3333L36.3333 24.25H17.6667Z" fill="white"/>
</svg>
