<svg width="607" height="68" viewBox="0 0 607 68" fill="none" xmlns="http://www.w3.org/2000/svg">
<path d="M79.936 42L89.504 5.6H101.464L111.032 42H103.96L101.984 33.992H88.984L87.008 42H79.936ZM90.596 27.648H100.372L95.952 9.916H95.016L90.596 27.648ZM125.425 42.416C123.414 42.416 121.646 41.9653 120.121 41.064C118.63 40.128 117.469 38.8453 116.637 37.216C115.805 35.5867 115.389 33.7147 115.389 31.6V16.208H121.941V31.08C121.941 33.0213 122.409 34.4773 123.345 35.448C124.316 36.4187 125.685 36.904 127.453 36.904C129.464 36.904 131.024 36.2453 132.133 34.928C133.242 33.576 133.797 31.704 133.797 29.312V16.208H140.349V42H133.901V38.62H132.965C132.549 39.4867 131.769 40.336 130.625 41.168C129.481 42 127.748 42.416 125.425 42.416ZM147.64 42V16.208H154.088V19.12H155.024C155.405 18.08 156.029 17.3173 156.896 16.832C157.797 16.3467 158.837 16.104 160.016 16.104H163.136V21.928H159.912C158.248 21.928 156.879 22.3787 155.804 23.28C154.729 24.1467 154.192 25.4987 154.192 27.336V42H147.64ZM179.615 42.728C177.05 42.728 174.744 42.208 172.699 41.168C170.654 40.128 169.042 38.62 167.863 36.644C166.684 34.668 166.095 32.2933 166.095 29.52V28.688C166.095 25.9147 166.684 23.54 167.863 21.564C169.042 19.588 170.654 18.08 172.699 17.04C174.744 16 177.05 15.48 179.615 15.48C182.18 15.48 184.486 16 186.531 17.04C188.576 18.08 190.188 19.588 191.367 21.564C192.546 23.54 193.135 25.9147 193.135 28.688V29.52C193.135 32.2933 192.546 34.668 191.367 36.644C190.188 38.62 188.576 40.128 186.531 41.168C184.486 42.208 182.18 42.728 179.615 42.728ZM179.615 36.904C181.626 36.904 183.29 36.2627 184.607 34.98C185.924 33.6627 186.583 31.7907 186.583 29.364V28.844C186.583 26.4173 185.924 24.5627 184.607 23.28C183.324 21.9627 181.66 21.304 179.615 21.304C177.604 21.304 175.94 21.9627 174.623 23.28C173.306 24.5627 172.647 26.4173 172.647 28.844V29.364C172.647 31.7907 173.306 33.6627 174.623 34.98C175.94 36.2627 177.604 36.904 179.615 36.904ZM199.183 42V16.208H205.631V19.12H206.567C206.948 18.08 207.572 17.3173 208.439 16.832C209.34 16.3467 210.38 16.104 211.559 16.104H214.679V21.928H211.455C209.791 21.928 208.422 22.3787 207.347 23.28C206.272 24.1467 205.735 25.4987 205.735 27.336V42H199.183ZM227.199 42.728C225.361 42.728 223.715 42.416 222.259 41.792C220.803 41.1333 219.641 40.1973 218.775 38.984C217.943 37.736 217.527 36.228 217.527 34.46C217.527 32.692 217.943 31.2187 218.775 30.04C219.641 28.8267 220.82 27.9253 222.311 27.336C223.836 26.712 225.569 26.4 227.511 26.4H234.583V24.944C234.583 23.7307 234.201 22.7427 233.439 21.98C232.676 21.1827 231.463 20.784 229.799 20.784C228.169 20.784 226.956 21.1653 226.159 21.928C225.361 22.656 224.841 23.6093 224.599 24.788L218.567 22.76C218.983 21.4427 219.641 20.2467 220.543 19.172C221.479 18.0627 222.709 17.1787 224.235 16.52C225.795 15.8267 227.684 15.48 229.903 15.48C233.3 15.48 235.987 16.3293 237.963 18.028C239.939 19.7267 240.927 22.188 240.927 25.412V35.032C240.927 36.072 241.412 36.592 242.383 36.592H244.463V42H240.095C238.812 42 237.755 41.688 236.923 41.064C236.091 40.44 235.675 39.608 235.675 38.568V38.516H234.687C234.548 38.932 234.236 39.4867 233.751 40.18C233.265 40.8387 232.503 41.428 231.463 41.948C230.423 42.468 229.001 42.728 227.199 42.728ZM228.343 37.424C230.18 37.424 231.671 36.9213 232.815 35.916C233.993 34.876 234.583 33.5067 234.583 31.808V31.288H227.979C226.765 31.288 225.812 31.548 225.119 32.068C224.425 32.588 224.079 33.316 224.079 34.252C224.079 35.188 224.443 35.9507 225.171 36.54C225.899 37.1293 226.956 37.424 228.343 37.424Z" fill="black"/>
<path d="M84.916 64.238C84.0093 64.238 83.301 64.0623 82.791 63.711C82.2923 63.3483 81.924 62.9403 81.686 62.487H81.482V64H80.496V52.1H81.516V57.183H81.72C81.8673 56.8997 82.0713 56.6333 82.332 56.384C82.604 56.1233 82.9497 55.9137 83.369 55.755C83.7997 55.585 84.3153 55.5 84.916 55.5C85.664 55.5 86.3383 55.6757 86.939 56.027C87.5397 56.367 88.0157 56.86 88.367 57.506C88.7183 58.1407 88.894 58.8943 88.894 59.767V59.971C88.894 60.8437 88.7127 61.603 88.35 62.249C87.9987 62.8837 87.5227 63.3767 86.922 63.728C86.3213 64.068 85.6527 64.238 84.916 64.238ZM84.678 63.32C85.6187 63.32 86.378 63.0197 86.956 62.419C87.5453 61.8183 87.84 60.991 87.84 59.937V59.801C87.84 58.747 87.5453 57.9197 86.956 57.319C86.378 56.7183 85.6187 56.418 84.678 56.418C83.7487 56.418 82.9893 56.7183 82.4 57.319C81.8107 57.9197 81.516 58.747 81.516 59.801V59.937C81.516 60.991 81.8107 61.8183 82.4 62.419C82.9893 63.0197 83.7487 63.32 84.678 63.32ZM92.5232 67.4V66.482H97.3512C97.6912 66.482 97.8612 66.312 97.8612 65.972V62.572H97.6572C97.5212 62.844 97.3286 63.1047 97.0792 63.354C96.8412 63.592 96.5239 63.7903 96.1272 63.949C95.7419 64.0963 95.2546 64.17 94.6652 64.17C94.0759 64.17 93.5262 64.0453 93.0162 63.796C92.5176 63.5467 92.1152 63.1727 91.8092 62.674C91.5146 62.1753 91.3672 61.5463 91.3672 60.787V55.738H92.3872V60.719C92.3872 61.6143 92.6139 62.2603 93.0672 62.657C93.5206 63.0537 94.1269 63.252 94.8862 63.252C95.7362 63.252 96.4446 62.9743 97.0112 62.419C97.5779 61.8637 97.8612 61.0193 97.8612 59.886V55.738H98.8812V66.108C98.8812 66.516 98.7679 66.8333 98.5412 67.06C98.3259 67.2867 97.9972 67.4 97.5552 67.4H92.5232ZM105.582 64V63.014H107.282V53.086H105.582V52.1H110.104C111.656 52.1 112.863 52.4967 113.725 53.29C114.597 54.072 115.034 55.296 115.034 56.962V59.155C115.034 60.821 114.597 62.045 113.725 62.827C112.863 63.609 111.656 64 110.104 64H105.582ZM108.37 63.014H110.104C111.35 63.014 112.302 62.7137 112.96 62.113C113.617 61.5123 113.946 60.5433 113.946 59.206V56.911C113.946 55.5623 113.617 54.5933 112.96 54.004C112.302 53.4033 111.35 53.103 110.104 53.103H108.37V63.014ZM117.483 64V52.1H122.141C122.878 52.1 123.524 52.2247 124.079 52.474C124.646 52.7233 125.088 53.086 125.405 53.562C125.734 54.0267 125.898 54.5933 125.898 55.262V55.432C125.898 56.2367 125.706 56.8713 125.32 57.336C124.935 57.7893 124.482 58.0897 123.96 58.237V58.441C124.357 58.4523 124.691 58.577 124.963 58.815C125.235 59.053 125.371 59.4327 125.371 59.954V64H124.283V60.073C124.283 59.7103 124.181 59.4327 123.977 59.24C123.785 59.0473 123.49 58.951 123.093 58.951H118.571V64H117.483ZM118.571 57.965H122.039C122.923 57.965 123.603 57.761 124.079 57.353C124.567 56.9337 124.81 56.3387 124.81 55.568V55.483C124.81 54.7123 124.572 54.123 124.096 53.715C123.632 53.2957 122.946 53.086 122.039 53.086H118.571V57.965ZM132.407 64.238C131.013 64.238 129.902 63.83 129.075 63.014C128.248 62.1867 127.834 60.9797 127.834 59.393V56.707C127.834 55.1203 128.248 53.919 129.075 53.103C129.902 52.2757 131.013 51.862 132.407 51.862C133.801 51.862 134.912 52.2757 135.739 53.103C136.566 53.919 136.98 55.1203 136.98 56.707V59.393C136.98 60.9797 136.566 62.1867 135.739 63.014C134.912 63.83 133.801 64.238 132.407 64.238ZM132.407 63.252C133.518 63.252 134.373 62.9177 134.974 62.249C135.586 61.5803 135.892 60.6397 135.892 59.427V56.673C135.892 55.4603 135.586 54.5197 134.974 53.851C134.373 53.1823 133.518 52.848 132.407 52.848C131.308 52.848 130.452 53.1823 129.84 53.851C129.228 54.5197 128.922 55.4603 128.922 56.673V59.427C128.922 60.6397 129.228 61.5803 129.84 62.249C130.452 62.9177 131.308 63.252 132.407 63.252ZM139.53 64V52.1H143.933C144.636 52.1 145.265 52.236 145.82 52.508C146.387 52.7687 146.835 53.1483 147.163 53.647C147.492 54.1457 147.656 54.752 147.656 55.466V55.67C147.656 56.384 147.486 56.996 147.146 57.506C146.818 58.0047 146.37 58.3843 145.803 58.645C145.248 58.9057 144.625 59.036 143.933 59.036H140.618V64H139.53ZM140.618 58.05H143.814C144.664 58.05 145.333 57.8403 145.82 57.421C146.319 57.0017 146.568 56.4123 146.568 55.653V55.483C146.568 54.7123 146.325 54.123 145.837 53.715C145.361 53.2957 144.687 53.086 143.814 53.086H140.618V58.05ZM156.683 64V53.086H152.705V52.1H161.749V53.086H157.771V64H156.683ZM161.338 64L165.231 52.1H167.169L171.062 64H169.923L168.903 60.838H163.497L162.477 64H161.338ZM163.803 59.852H168.597L166.302 52.746H166.098L163.803 59.852ZM172.353 64V63.014H174.053V53.086H172.353V52.1H178.252C178.932 52.1 179.538 52.2247 180.071 52.474C180.604 52.7233 181.017 53.0747 181.312 53.528C181.618 53.97 181.771 54.4857 181.771 55.075V55.211C181.771 55.7663 181.663 56.2253 181.448 56.588C181.233 56.9507 180.972 57.234 180.666 57.438C180.36 57.642 180.06 57.7893 179.765 57.88V58.084C180.06 58.152 180.36 58.2937 180.666 58.509C180.983 58.713 181.244 58.9963 181.448 59.359C181.663 59.7217 181.771 60.1807 181.771 60.736V60.906C181.771 61.552 181.612 62.1073 181.295 62.572C180.989 63.0367 180.564 63.3937 180.02 63.643C179.487 63.881 178.881 64 178.201 64H172.353ZM175.141 63.014H178.099C178.949 63.014 179.589 62.8157 180.02 62.419C180.462 62.0223 180.683 61.4897 180.683 60.821V60.685C180.683 60.0163 180.462 59.4837 180.02 59.087C179.589 58.6903 178.949 58.492 178.099 58.492H175.141V63.014ZM175.141 57.506H178.167C178.949 57.506 179.561 57.3133 180.003 56.928C180.456 56.5313 180.683 56.0157 180.683 55.381V55.211C180.683 54.5763 180.456 54.0663 180.003 53.681C179.561 53.2843 178.949 53.086 178.167 53.086H175.141V57.506ZM184.222 64V52.1H185.31V63.014H191.566V64H184.222ZM193.519 64V52.1H200.71V53.086H194.607V57.54H200.234V58.526H194.607V63.014H200.778V64H193.519ZM211.695 64.238C210.788 64.238 209.995 64.0567 209.315 63.694C208.635 63.32 208.108 62.776 207.734 62.062C207.36 61.3367 207.173 60.447 207.173 59.393V56.707C207.173 55.1203 207.587 53.919 208.414 53.103C209.253 52.2757 210.369 51.862 211.763 51.862C213.146 51.862 214.188 52.2473 214.891 53.018C215.605 53.7887 215.962 54.8143 215.962 56.095V56.18H214.874V56.061C214.874 55.4377 214.766 54.888 214.551 54.412C214.336 53.9247 213.996 53.545 213.531 53.273C213.078 52.9897 212.488 52.848 211.763 52.848C210.664 52.848 209.802 53.1823 209.179 53.851C208.567 54.5197 208.261 55.4603 208.261 56.673V59.427C208.261 60.6397 208.567 61.5803 209.179 62.249C209.802 62.9177 210.664 63.252 211.763 63.252C212.84 63.252 213.633 62.9403 214.143 62.317C214.653 61.6937 214.908 60.855 214.908 59.801V59.461H210.981V58.509H215.962V64H214.976V62.657H214.772C214.636 62.929 214.443 63.1897 214.194 63.439C213.945 63.677 213.616 63.8697 213.208 64.017C212.811 64.1643 212.307 64.238 211.695 64.238ZM218.753 64V52.1H223.411C224.148 52.1 224.794 52.2247 225.349 52.474C225.916 52.7233 226.358 53.086 226.675 53.562C227.004 54.0267 227.168 54.5933 227.168 55.262V55.432C227.168 56.2367 226.975 56.8713 226.59 57.336C226.205 57.7893 225.751 58.0897 225.23 58.237V58.441C225.627 58.4523 225.961 58.577 226.233 58.815C226.505 59.053 226.641 59.4327 226.641 59.954V64H225.553V60.073C225.553 59.7103 225.451 59.4327 225.247 59.24C225.054 59.0473 224.76 58.951 224.363 58.951H219.841V64H218.753ZM219.841 57.965H223.309C224.193 57.965 224.873 57.761 225.349 57.353C225.836 56.9337 226.08 56.3387 226.08 55.568V55.483C226.08 54.7123 225.842 54.123 225.366 53.715C224.901 53.2957 224.216 53.086 223.309 53.086H219.841V57.965ZM228.492 64L232.385 52.1H234.323L238.216 64H237.077L236.057 60.838H230.651L229.631 64H228.492ZM230.957 59.852H235.751L233.456 52.746H233.252L230.957 59.852ZM239.506 64V63.014H241.206V53.086H239.506V52.1H244.028C245.581 52.1 246.788 52.4967 247.649 53.29C248.522 54.072 248.958 55.296 248.958 56.962V59.155C248.958 60.821 248.522 62.045 247.649 62.827C246.788 63.609 245.581 64 244.028 64H239.506ZM242.294 63.014H244.028C245.275 63.014 246.227 62.7137 246.884 62.113C247.542 61.5123 247.87 60.5433 247.87 59.206V56.911C247.87 55.5623 247.542 54.5933 246.884 54.004C246.227 53.4033 245.275 53.103 244.028 53.103H242.294V63.014ZM251.408 64V52.1H258.599V53.086H252.496V57.54H258.123V58.526H252.496V63.014H258.667V64H251.408ZM264.947 64.238C264.097 64.238 263.337 64.0907 262.669 63.796C262 63.49 261.473 63.031 261.088 62.419C260.702 61.7957 260.51 61.008 260.51 60.056V59.733H261.598V60.056C261.598 61.1553 261.909 61.9713 262.533 62.504C263.167 63.0253 263.972 63.286 264.947 63.286C265.933 63.286 266.692 63.0593 267.225 62.606C267.757 62.1413 268.024 61.552 268.024 60.838C268.024 60.362 267.905 59.9823 267.667 59.699C267.44 59.4043 267.117 59.172 266.698 59.002C266.29 58.8207 265.814 58.662 265.27 58.526L264.182 58.254C263.536 58.084 262.958 57.8743 262.448 57.625C261.938 57.3643 261.535 57.03 261.241 56.622C260.946 56.2027 260.799 55.67 260.799 55.024C260.799 54.378 260.963 53.817 261.292 53.341C261.632 52.865 262.096 52.5023 262.686 52.253C263.275 51.9923 263.961 51.862 264.743 51.862C265.525 51.862 266.227 51.998 266.851 52.27C267.485 52.542 267.984 52.9443 268.347 53.477C268.721 53.9983 268.908 54.6557 268.908 55.449V56.248H267.82V55.449C267.82 54.8257 267.684 54.3213 267.412 53.936C267.14 53.5507 266.771 53.2673 266.307 53.086C265.842 52.9047 265.321 52.814 264.743 52.814C263.915 52.814 263.23 53.0067 262.686 53.392C262.153 53.766 261.887 54.31 261.887 55.024C261.887 55.5 261.994 55.8797 262.21 56.163C262.436 56.4463 262.748 56.673 263.145 56.843C263.553 57.013 264.029 57.166 264.573 57.302L265.661 57.574C266.284 57.7213 266.856 57.9197 267.378 58.169C267.899 58.407 268.318 58.7413 268.636 59.172C268.953 59.5913 269.112 60.1467 269.112 60.838C269.112 61.5293 268.936 62.13 268.585 62.64C268.245 63.15 267.763 63.5467 267.14 63.83C266.516 64.102 265.785 64.238 264.947 64.238Z" fill="#BDBDBD"/>
<path d="M34.0176 27.4118C34.842 27.4118 35.6327 27.0812 36.2156 26.4929C36.7986 25.9045 37.1261 25.1066 37.1261 24.2745C37.1261 23.4425 36.7986 22.6445 36.2156 22.0561C35.6327 21.4678 34.842 21.1373 34.0176 21.1373C33.1932 21.1373 32.4025 21.4678 31.8196 22.0561C31.2366 22.6445 30.9091 23.4425 30.9091 24.2745C30.9091 25.1066 31.2366 25.9045 31.8196 26.4929C32.4025 27.0812 33.1932 27.4118 34.0176 27.4118ZM23.1378 27.4118C23.9623 27.4118 24.7529 27.0812 25.3359 26.4929C25.9188 25.9045 26.2463 25.1066 26.2463 24.2745C26.2463 23.4425 25.9188 22.6445 25.3359 22.0561C24.7529 21.4678 23.9623 21.1373 23.1378 21.1373C22.3134 21.1373 21.5227 21.4678 20.9398 22.0561C20.3568 22.6445 20.0293 23.4425 20.0293 24.2745C20.0293 25.1066 20.3568 25.9045 20.9398 26.4929C21.5227 27.0812 22.3134 27.4118 23.1378 27.4118ZM39.4575 36.8235C40.2819 36.8235 41.0726 36.493 41.6555 35.9046C42.2385 35.3163 42.566 34.5183 42.566 33.6863C42.566 32.8542 42.2385 32.0563 41.6555 31.4679C41.0726 30.8796 40.2819 30.549 39.4575 30.549C38.6331 30.549 37.8424 30.8796 37.2594 31.4679C36.6765 32.0563 36.349 32.8542 36.349 33.6863C36.349 34.5183 36.6765 35.3163 37.2594 35.9046C37.8424 36.493 38.6331 36.8235 39.4575 36.8235ZM44.5865 26.6275C45.2048 26.6275 45.7978 26.3796 46.235 25.9383C46.6723 25.497 46.9179 24.8985 46.9179 24.2745C46.9179 23.6505 46.6723 23.052 46.235 22.6107C45.7978 22.1695 45.2048 21.9216 44.5865 21.9216C43.9682 21.9216 43.3752 22.1695 42.938 22.6107C42.5008 23.052 42.2551 23.6505 42.2551 24.2745C42.2551 24.8985 42.5008 25.497 42.938 25.9383C43.3752 26.3796 43.9682 26.6275 44.5865 26.6275ZM44.5865 45.451C45.2048 45.451 45.7978 45.2031 46.235 44.7618C46.6723 44.3206 46.9179 43.7221 46.9179 43.098C46.9179 42.474 46.6723 41.8755 46.235 41.4343C45.7978 40.993 45.2048 40.7451 44.5865 40.7451C43.9682 40.7451 43.3752 40.993 42.938 41.4343C42.5008 41.8755 42.2551 42.474 42.2551 43.098C42.2551 43.7221 42.5008 44.3206 42.938 44.7618C43.3752 45.2031 43.9682 45.451 44.5865 45.451ZM52.6686 36.0392C53.2869 36.0392 53.8799 35.7913 54.3172 35.3501C54.7544 34.9088 55 34.3103 55 33.6863C55 33.0622 54.7544 32.4638 54.3172 32.0225C53.8799 31.5812 53.2869 31.3333 52.6686 31.3333C52.0503 31.3333 51.4573 31.5812 51.0201 32.0225C50.5829 32.4638 50.3372 33.0622 50.3372 33.6863C50.3372 34.3103 50.5829 34.9088 51.0201 35.3501C51.4573 35.7913 52.0503 36.0392 52.6686 36.0392ZM12.4135 26.6275C13.0318 26.6275 13.6248 26.3796 14.062 25.9383C14.4992 25.497 14.7449 24.8985 14.7449 24.2745C14.7449 23.6505 14.4992 23.052 14.062 22.6107C13.6248 22.1695 13.0318 21.9216 12.4135 21.9216C11.7952 21.9216 11.2022 22.1695 10.765 22.6107C10.3277 23.052 10.0821 23.6505 10.0821 24.2745C10.0821 24.8985 10.3277 25.497 10.765 25.9383C11.2022 26.3796 11.7952 26.6275 12.4135 26.6275ZM12.4135 45.451C13.0318 45.451 13.6248 45.2031 14.062 44.7618C14.4992 44.3206 14.7449 43.7221 14.7449 43.098C14.7449 42.474 14.4992 41.8755 14.062 41.4343C13.6248 40.993 13.0318 40.7451 12.4135 40.7451C11.7952 40.7451 11.2022 40.993 10.765 41.4343C10.3277 41.8755 10.0821 42.474 10.0821 43.098C10.0821 43.7221 10.3277 44.3206 10.765 44.7618C11.2022 45.2031 11.7952 45.451 12.4135 45.451ZM4.33138 36.0392C4.9497 36.0392 5.54269 35.7913 5.97991 35.3501C6.41713 34.9088 6.66276 34.3103 6.66276 33.6863C6.66276 33.0622 6.41713 32.4638 5.97991 32.0225C5.54269 31.5812 4.9497 31.3333 4.33138 31.3333C3.71306 31.3333 3.12006 31.5812 2.68284 32.0225C2.24563 32.4638 2 33.0622 2 33.6863C2 34.3103 2.24563 34.9088 2.68284 35.3501C3.12006 35.7913 3.71306 36.0392 4.33138 36.0392ZM40.7009 14.7059C41.3192 14.7059 41.9122 14.458 42.3494 14.0167C42.7866 13.5755 43.0323 12.977 43.0323 12.3529C43.0323 11.7289 42.7866 11.1304 42.3494 10.6892C41.9122 10.2479 41.3192 10 40.7009 10C40.0826 10 39.4896 10.2479 39.0523 10.6892C38.6151 11.1304 38.3695 11.7289 38.3695 12.3529C38.3695 12.977 38.6151 13.5755 39.0523 14.0167C39.4896 14.458 40.0826 14.7059 40.7009 14.7059ZM16.4545 14.7059C17.0729 14.7059 17.6659 14.458 18.1031 14.0167C18.5403 13.5755 18.7859 12.977 18.7859 12.3529C18.7859 11.7289 18.5403 11.1304 18.1031 10.6892C17.6659 10.2479 17.0729 10 16.4545 10C15.8362 10 15.2432 10.2479 14.806 10.6892C14.3688 11.1304 14.1232 11.7289 14.1232 12.3529C14.1232 12.977 14.3688 13.5755 14.806 14.0167C15.2432 14.458 15.8362 14.7059 16.4545 14.7059ZM28.7331 17.2157C29.3515 17.2157 29.9445 16.9678 30.3817 16.5265C30.8189 16.0853 31.0645 15.4868 31.0645 14.8627C31.0645 14.2387 30.8189 13.6402 30.3817 13.199C29.9445 12.7577 29.3515 12.5098 28.7331 12.5098C28.1148 12.5098 27.5218 12.7577 27.0846 13.199C26.6474 13.6402 26.4018 14.2387 26.4018 14.8627C26.4018 15.4868 26.6474 16.0853 27.0846 16.5265C27.5218 16.9678 28.1148 17.2157 28.7331 17.2157ZM40.7009 58C41.3192 58 41.9122 57.7521 42.3494 57.3108C42.7866 56.8696 43.0323 56.2711 43.0323 55.6471C43.0323 55.023 42.7866 54.4245 42.3494 53.9833C41.9122 53.542 41.3192 53.2941 40.7009 53.2941C40.0826 53.2941 39.4896 53.542 39.0523 53.9833C38.6151 54.4245 38.3695 55.023 38.3695 55.6471C38.3695 56.2711 38.6151 56.8696 39.0523 57.3108C39.4896 57.7521 40.0826 58 40.7009 58ZM16.4545 58C17.0729 58 17.6659 57.7521 18.1031 57.3108C18.5403 56.8696 18.7859 56.2711 18.7859 55.6471C18.7859 55.023 18.5403 54.4245 18.1031 53.9833C17.6659 53.542 17.0729 53.2941 16.4545 53.2941C15.8362 53.2941 15.2432 53.542 14.806 53.9833C14.3688 54.4245 14.1232 55.023 14.1232 55.6471C14.1232 56.2711 14.3688 56.8696 14.806 57.3108C15.2432 57.7521 15.8362 58 16.4545 58ZM28.7331 55.4902C29.3515 55.4902 29.9445 55.2423 30.3817 54.801C30.8189 54.3598 31.0645 53.7613 31.0645 53.1373C31.0645 52.5132 30.8189 51.9147 30.3817 51.4735C29.9445 51.0322 29.3515 50.7843 28.7331 50.7843C28.1148 50.7843 27.5218 51.0322 27.0846 51.4735C26.6474 51.9147 26.4018 52.5132 26.4018 53.1373C26.4018 53.7613 26.6474 54.3598 27.0846 54.801C27.5218 55.2423 28.1148 55.4902 28.7331 55.4902ZM17.6979 36.8235C18.5224 36.8235 19.313 36.493 19.896 35.9046C20.479 35.3163 20.8065 34.5183 20.8065 33.6863C20.8065 32.8542 20.479 32.0563 19.896 31.4679C19.313 30.8796 18.5224 30.549 17.6979 30.549C16.8735 30.549 16.0829 30.8796 15.4999 31.4679C14.9169 32.0563 14.5894 32.8542 14.5894 33.6863C14.5894 34.5183 14.9169 35.3163 15.4999 35.9046C16.0829 36.493 16.8735 36.8235 17.6979 36.8235ZM23.1378 46.2353C23.9623 46.2353 24.7529 45.9048 25.3359 45.3164C25.9188 44.7281 26.2463 43.9301 26.2463 43.098C26.2463 42.266 25.9188 41.468 25.3359 40.8797C24.7529 40.2913 23.9623 39.9608 23.1378 39.9608C22.3134 39.9608 21.5227 40.2913 20.9398 40.8797C20.3568 41.468 20.0293 42.266 20.0293 43.098C20.0293 43.9301 20.3568 44.7281 20.9398 45.3164C21.5227 45.9048 22.3134 46.2353 23.1378 46.2353ZM34.0176 46.2353C34.842 46.2353 35.6327 45.9048 36.2156 45.3164C36.7986 44.7281 37.1261 43.9301 37.1261 43.098C37.1261 42.266 36.7986 41.468 36.2156 40.8797C35.6327 40.2913 34.842 39.9608 34.0176 39.9608C33.1932 39.9608 32.4025 40.2913 31.8196 40.8797C31.2366 41.468 30.9091 42.266 30.9091 43.098C30.9091 43.9301 31.2366 44.7281 31.8196 45.3164C32.4025 45.9048 33.1932 46.2353 34.0176 46.2353Z" fill="#00D1FF" stroke="#00D1FF" stroke-width="3" stroke-miterlimit="10"/>
</svg>
