<svg width="32" height="32" viewBox="0 0 32 32" fill="none" xmlns="http://www.w3.org/2000/svg">
<path d="M29.3332 13.3333V17.3333C29.3332 22.6667 26.6665 25.3333 21.3332 25.3333H20.6665C20.2532 25.3333 19.8532 25.5333 19.5998 25.8667L17.5998 28.5333C16.7198 29.7067 15.2798 29.7067 14.3998 28.5333L12.3998 25.8667C12.1865 25.5733 11.6932 25.3333 11.3332 25.3333H10.6665C5.33317 25.3333 2.6665 24 2.6665 17.3333V10.6667C2.6665 5.33332 5.33317 2.66666 10.6665 2.66666H18.6665" stroke="#6C6C6C" stroke-width="1.5" stroke-miterlimit="10" stroke-linecap="round" stroke-linejoin="round"/>
<path d="M25.9998 9.33332C26.8839 9.33332 27.7317 8.98213 28.3569 8.35701C28.982 7.73189 29.3332 6.88404 29.3332 5.99999C29.3332 5.11593 28.982 4.26809 28.3569 3.64297C27.7317 3.01785 26.8839 2.66666 25.9998 2.66666C25.1158 2.66666 24.2679 3.01785 23.6428 3.64297C23.0177 4.26809 22.6665 5.11593 22.6665 5.99999C22.6665 6.88404 23.0177 7.73189 23.6428 8.35701C24.2679 8.98213 25.1158 9.33332 25.9998 9.33332Z" stroke="#6C6C6C" stroke-width="1.5" stroke-linecap="round" stroke-linejoin="round"/>
<path d="M21.3282 14.6667H21.3415M15.9935 14.6667H16.0068M10.6602 14.6667H10.6708" stroke="#6C6C6C" stroke-width="2" stroke-linecap="round" stroke-linejoin="round"/>
</svg>
