<svg width="54" height="54" viewBox="0 0 54 54" fill="none" xmlns="http://www.w3.org/2000/svg">
<rect width="54" height="54" rx="15" fill="#00A7FF"/>
<path d="M35 36C35 32.517 31.6385 29.7 27.5 29.7C23.3615 29.7 20 32.517 20 36M27.5 27C28.6578 27 29.7682 26.5259 30.5869 25.682C31.4056 24.8381 31.8655 23.6935 31.8655 22.5C31.8655 21.3065 31.4056 20.1619 30.5869 19.318C29.7682 18.4741 28.6578 18 27.5 18C26.3422 18 25.2318 18.4741 24.4131 19.318C23.5944 20.1619 23.1345 21.3065 23.1345 22.5C23.1345 23.6935 23.5944 24.8381 24.4131 25.682C25.2318 26.5259 26.3422 27 27.5 27Z" stroke="white" stroke-width="2" stroke-linecap="round" stroke-linejoin="round"/>
</svg>
