<svg width="21" height="21" viewBox="0 0 21 21" fill="none" xmlns="http://www.w3.org/2000/svg">
<path d="M20 20L14.68 14.68M8.22 15.44C9.16814 15.44 10.107 15.2532 10.983 14.8904C11.8589 14.5276 12.6549 13.9957 13.3253 13.3253C13.9957 12.6549 14.5276 11.8589 14.8904 10.983C15.2532 10.107 15.44 9.16814 15.44 8.22C15.44 7.27186 15.2532 6.333 14.8904 5.45703C14.5276 4.58105 13.9957 3.78513 13.3253 3.11469C12.6549 2.44425 11.8589 1.91243 10.983 1.54959C10.107 1.18675 9.16814 1 8.22 1C6.30514 1 4.4687 1.76068 3.11469 3.11469C1.76068 4.4687 1 6.30514 1 8.22C1 10.1349 1.76068 11.9713 3.11469 13.3253C4.4687 14.6793 6.30514 15.44 8.22 15.44Z" stroke="white" stroke-width="1.5" stroke-linecap="round" stroke-linejoin="round"/>
</svg>
