<svg width="786" height="786" viewBox="0 0 786 786" fill="none" xmlns="http://www.w3.org/2000/svg">
<path d="M387.873 734.895L392.5 746.194L397.127 734.895L454.998 593.569C588.125 565.288 688 447.057 688 305.5C688 142.852 556.148 11 393.5 11C230.852 11 99 142.852 99 305.5C99 446.278 197.779 563.986 329.808 593.094L387.873 734.895Z" fill="#7A31B3" stroke="white" stroke-width="10"/>
<path d="M499.257 240.643C502.015 283.741 481.108 313.954 481.108 313.954C483.823 280.76 470.368 234.88 470.368 234.88C458.876 232.628 440.511 235.046 440.511 235.046C443.16 270.849 424.953 302.114 411.506 313.623C418.155 273.921 407.573 243.881 407.573 243.881C389.382 239.294 363.308 242.101 363.308 242.101C368.972 284.337 345.672 315.412 345.672 315.412C349.53 285.968 333.798 248.203 333.798 248.203C320.442 247.334 299.163 251.681 299.163 251.681C310.382 271.726 301.423 315.784 301.423 315.784C295.304 279.758 274.737 258.512 274.737 258.512C156.797 308.738 187.863 377.934 245.533 398.543C299.941 417.951 475.254 427.515 553.69 393.484C632.135 359.436 576.899 263.761 499.257 240.643Z" fill="white" stroke="white" stroke-width="16"/>
</svg>
