<svg width="786" height="786" viewBox="0 0 786 786" fill="none" xmlns="http://www.w3.org/2000/svg">
<path d="M387.873 734.895L392.5 746.194L397.127 734.895L454.998 593.569C588.125 565.288 688 447.057 688 305.5C688 142.852 556.148 11 393.5 11C230.852 11 99 142.852 99 305.5C99 446.278 197.779 563.986 329.808 593.094L387.873 734.895Z" fill="#7A31B3" stroke="white" stroke-width="10"/>
<g clip-path="url(#clip0_15_2)">
<path d="M537.698 252.952C534.303 228.572 523.054 207.144 506.884 190.973C495.219 179.317 480.991 170.362 465.269 164.932C449.548 159.502 432.318 157.605 414.742 160.052C390.362 163.443 368.932 174.701 352.767 190.871C341.101 202.531 332.151 216.759 326.721 232.481C321.291 248.202 319.394 265.432 321.841 283.013C323.965 298.295 329.187 312.416 336.763 324.807L254.935 406.64C249.82 411.746 247.238 418.504 247.248 425.197C247.239 431.889 249.82 438.647 254.931 443.749L256.494 445.317C261.601 450.428 268.363 453.014 275.056 453C281.749 453.009 288.502 450.428 293.608 445.312L376.106 362.819C381.879 366.08 387.952 368.846 394.27 371.029C409.991 376.459 427.216 378.361 444.798 375.909C469.182 372.519 490.612 361.265 506.773 345.09C518.434 333.425 527.388 319.202 532.819 303.48C538.248 287.759 540.144 270.529 537.698 252.952ZM283.303 435.007C281.004 437.301 278.062 438.416 275.056 438.425C272.04 438.42 269.103 437.301 266.804 435.012L265.236 433.444C262.947 431.15 261.832 428.209 261.823 425.197C261.832 422.186 262.947 419.244 265.241 416.946L343.446 338.74L361.509 356.802L283.303 435.007ZM519.044 298.721C514.34 312.338 506.574 324.673 496.462 334.785C484.039 347.209 468.105 356.237 449.913 360.192C448.507 360.27 447.091 360.293 445.68 360.261C436.666 360.044 427.475 357.592 418.663 353.305C409.861 349.026 401.457 342.925 394.103 335.566C382.955 324.429 374.232 310.414 369.847 295.733C367.646 288.397 366.526 280.89 366.66 273.476C366.804 266.052 368.187 258.707 371.05 251.598C374.052 244.119 378.825 237.107 384.838 231.094C394.815 221.103 408.187 213.952 422.012 211.741C428.926 210.631 435.952 210.728 442.807 212.245C449.662 213.772 456.36 216.7 462.701 221.367C465.412 223.365 467.868 225.479 470.069 227.68C475.153 232.763 478.932 238.337 481.554 244.165C485.486 252.898 486.827 262.223 485.855 271.292C484.884 280.363 481.591 289.16 476.267 296.746C474.732 298.929 473.034 300.946 471.193 302.787C463.316 310.673 452.854 315.308 442.428 316.112C437.22 316.515 432.031 315.969 427.165 314.452C422.294 312.926 417.752 310.432 413.737 306.876C413.117 306.325 412.525 305.77 411.952 305.197C405.199 298.435 401.554 290.049 400.911 281.524C400.272 273 402.64 264.382 408.113 257.135C408.853 256.154 409.648 255.248 410.485 254.406C414.972 249.919 420.823 247.37 426.877 246.927C432.937 246.487 439.116 248.138 444.348 252.088C444.991 252.569 445.61 253.115 446.202 253.702C447.839 255.34 449.25 257.361 450.287 259.577C451.854 262.889 452.553 266.598 452.22 269.933C452.054 271.612 451.646 273.203 450.985 274.674C450.314 276.14 449.394 277.504 448.136 278.763C447.637 279.267 447.077 279.752 446.453 280.22C444.006 282.056 441.194 282.828 438.566 282.703C435.921 282.574 433.534 281.551 431.795 279.812C430.833 278.841 430.037 277.643 429.464 276.103C428.303 272.962 424.815 271.348 421.661 272.509C418.52 273.665 416.906 277.153 418.067 280.303C419.224 283.453 421 286.2 423.206 288.402C427.221 292.417 432.544 294.572 437.966 294.836C443.4 295.1 449.015 293.485 453.743 289.938C454.816 289.128 455.815 288.268 456.726 287.357C459.793 284.295 461.911 280.66 463.123 276.876C464.95 271.182 464.788 265.215 463.266 259.729C461.726 254.239 458.826 249.156 454.797 245.118C453.822 244.142 452.78 243.231 451.675 242.394C444.034 236.616 434.848 234.156 425.99 234.808C417.128 235.461 408.506 239.207 401.901 245.812C400.667 247.051 399.506 248.384 398.428 249.813C391.143 259.438 387.937 271.057 388.798 282.436C389.645 293.818 394.566 304.998 403.363 313.786C404.108 314.531 404.88 315.257 405.676 315.965C411.004 320.696 417.115 324.032 423.544 326.044C433.183 329.055 443.511 329.101 453.28 326.557C463.044 324.009 472.29 318.865 479.784 311.372C482.11 309.045 484.265 306.497 486.208 303.726C494.89 291.362 499.154 276.395 498.165 261.372C497.674 253.86 495.861 246.348 492.633 239.175C489.405 232.005 484.76 225.192 478.66 219.091C476.015 216.445 473.096 213.934 469.904 211.588C462.217 205.922 453.896 202.264 445.44 200.39C432.735 197.578 419.778 198.753 407.882 202.786C395.972 206.829 385.061 213.702 376.254 222.504C369.182 229.576 363.469 237.897 359.778 247.06C356.346 255.608 354.681 264.456 354.52 273.249C354.279 286.45 357.392 299.516 362.854 311.593C368.326 323.67 376.152 334.785 385.514 344.151C391.009 349.642 397.027 354.531 403.433 358.643C401.952 358.212 400.482 357.754 399.03 357.25C385.413 352.555 373.072 344.785 362.961 334.679C348.946 320.65 339.224 302.168 336.277 281.001C334.15 265.733 335.801 250.854 340.495 237.237C345.195 223.624 352.965 211.284 363.072 201.177C377.096 187.157 395.579 177.435 416.749 174.488C432.022 172.365 446.898 174.012 460.515 178.707C474.122 183.411 486.468 191.177 496.579 201.283C510.594 215.307 520.311 233.794 523.263 254.96C525.385 270.233 523.738 285.109 519.044 298.721Z" fill="white" stroke="white" stroke-width="1.5625"/>
</g>
<defs>
<clipPath id="clip0_15_2">
<rect width="294" height="294" fill="white" transform="translate(246 159)"/>
</clipPath>
</defs>
</svg>
