<svg width="786" height="786" viewBox="0 0 786 786" fill="none" xmlns="http://www.w3.org/2000/svg">
<path d="M387.873 734.895L392.5 746.194L397.127 734.895L454.998 593.569C588.125 565.288 688 447.057 688 305.5C688 142.852 556.148 11 393.5 11C230.852 11 99 142.852 99 305.5C99 446.278 197.779 563.986 329.808 593.094L387.873 734.895Z" fill="#7A31B3" stroke="white" stroke-width="10"/>
<path d="M291 168.562H252.75C245.708 168.562 240 174.271 240 181.312V187.688C240 194.729 245.708 200.438 252.75 200.438H278.402L313.137 346.823C318.829 370.809 339.968 387.873 364.5 388.483V388.5H464.239C489.087 388.5 510.318 370.594 514.509 346.102L530.518 252.551C533.182 236.975 521.185 222.75 505.382 222.75H316.456L306.507 180.82C304.802 173.635 298.385 168.562 291 168.562Z" fill="white"/>
<path d="M367.5 426.75C367.5 440.834 356.083 452.25 342 452.25C327.917 452.25 316.5 440.834 316.5 426.75C316.5 412.666 327.917 401.25 342 401.25C356.083 401.25 367.5 412.666 367.5 426.75Z" fill="white"/>
<path d="M507.75 426.75C507.75 440.834 496.334 452.25 482.25 452.25C468.166 452.25 456.75 440.834 456.75 426.75C456.75 412.666 468.166 401.25 482.25 401.25C496.334 401.25 507.75 412.666 507.75 426.75Z" fill="white"/>
</svg>
