<svg width="786" height="786" viewBox="0 0 786 786" fill="none" xmlns="http://www.w3.org/2000/svg">
<path d="M387.873 734.895L392.5 746.194L397.127 734.895L454.998 593.569C588.125 565.288 688 447.057 688 305.5C688 142.852 556.148 11 393.5 11C230.852 11 99 142.852 99 305.5C99 446.278 197.779 563.986 329.808 593.094L387.873 734.895Z" fill="#7A31B3" stroke="white" stroke-width="10"/>
<path d="M326.666 340.167C354.142 340.167 376.416 317.893 376.416 290.417C376.416 262.941 354.142 240.667 326.666 240.667C299.19 240.667 276.916 262.941 276.916 290.417C276.916 317.893 299.19 340.167 326.666 340.167Z" fill="white" stroke="white" stroke-width="3.08333"/>
<path d="M495.899 224.083H392.999V356.75H260.333V207.5H227.166V439.667H260.333V389.917H525.666V439.667H558.833V373.333C558.833 373.184 558.75 373.068 558.75 372.935H558.833V290.417C558.833 255.658 530.674 224.083 495.899 224.083Z" fill="white" stroke="white" stroke-width="3.08333"/>
</svg>
