<svg width="786" height="786" viewBox="0 0 786 786" fill="none" xmlns="http://www.w3.org/2000/svg">
<path d="M387.873 734.895L392.5 746.194L397.127 734.895L454.998 593.569C588.125 565.288 688 447.057 688 305.5C688 142.852 556.148 11 393.5 11C230.852 11 99 142.852 99 305.5C99 446.278 197.779 563.986 329.808 593.094L387.873 734.895Z" fill="#7A31B3" stroke="white" stroke-width="10"/>
<path d="M488.681 433.406V414.638H493.143V407.419H406.387V414.638H409.931V433.406H331.706C329.737 428.288 328.293 385.894 327.9 372.506L359.4 334.05C359.925 334.05 360.581 334.181 361.106 334.181C395.231 334.181 422.925 308.194 422.925 276.038C422.925 270.263 422.006 264.75 420.431 259.5C430.537 250.706 436.968 237.713 436.968 223.275C436.968 196.763 415.443 175.238 388.931 175.238C381.318 175.238 374.231 176.944 367.8 180.094C363.206 161.719 345.618 148.069 324.75 148.069C304.275 148.069 287.081 161.063 282.093 178.781C281.962 178.781 281.962 178.781 281.831 178.781C258.075 178.781 238.912 196.894 238.912 219.206C238.912 228.525 242.325 237.056 247.837 243.881C239.7 252.675 234.712 264.488 234.712 277.481C234.712 304.388 256.237 326.306 283.143 326.963L306.768 350.588C306.243 376.706 304.668 428.681 302.568 433.406H231.693V447.188H554.437V433.406H488.681ZM295.743 325.519C299.681 324.6 303.487 323.156 306.9 321.319C307.031 321.319 307.293 321.319 307.425 321.319C307.293 325.256 307.162 330.638 307.031 336.938L295.743 325.519ZM326.587 324.206C332.493 327.881 339.056 330.638 346.012 332.344L327.375 353.606C327.112 343.369 326.85 331.031 326.587 324.206ZM417.281 414.638H481.462V433.406H417.281V414.638Z" fill="white" stroke="white" stroke-width="3.125"/>
<path d="M493.143 378.675H406.387V404.138H493.143V378.675Z" fill="white" stroke="white" stroke-width="3.125"/>
</svg>
